<svg height="18" width="24" viewBox="0 0 28 20" xmlns="http://www.w3.org/2000/svg"><defs><rect height="20" id="CH_svg__a" width="28" rx="2"></rect></defs><g fill="none" fill-rule="evenodd"><mask id="CH_svg__b" fill="#fff"><rect height="20" width="28" rx="2"></rect></mask><rect height="20" width="28" fill="#fff" rx="2"></rect><path d="M0 0h28v20H0z" fill="red"></path><path d="M12 12H8.341A.34.34 0 0 1 8 11.659V8.341A.34.34 0 0 1 8.341 8H12V4.341A.34.34 0 0 1 12.341 4h3.318a.34.34 0 0 1 .341.341V8h3.659a.34.34 0 0 1 .341.341v3.318a.34.34 0 0 1-.341.341H16v3.659a.34.34 0 0 1-.341.341h-3.318a.34.34 0 0 1-.341-.341V12z" fill="#fff"></path></g></svg>