<svg xmlns="http://www.w3.org/2000/svg" width="24" height="24" version="1.1" viewBox="0 0 24 24"><g fill="none" fill-rule="evenodd" stroke="none" stroke-width="1"><path d="M1 5h22v14.667H1z"/><path fill="#FFF" d="M8.508 8.283c2.37 0 4.29 1.813 4.29 4.05 0 2.236-1.92 4.05-4.29 4.05-2.368 0-4.29-1.814-4.29-4.05 0-2.237 1.922-4.05 4.29-4.05z"/><path fill="#FFAF38" d="M15.307 8.283c2.37 0 4.292 1.813 4.292 4.05 0 2.236-1.922 4.05-4.292 4.05s-4.29-1.814-4.29-4.05c0-2.237 1.921-4.05 4.29-4.05z"/><path fill="#EB3636" d="M8.508 8.283c2.37 0 4.29 1.813 4.29 4.05 0 2.236-1.92 4.05-4.29 4.05-2.368 0-4.29-1.814-4.29-4.05 0-2.237 1.922-4.05 4.29-4.05z"/><path fill="#F57137" d="M11.045 12.319c0 .927.335 1.779.89 2.462.55-.68.88-1.528.88-2.448 0-.928-.334-1.78-.891-2.463a3.89 3.89 0 0 0-.879 2.449z"/></g></svg>